<?xml version="1.0" encoding="utf-8"?>
<!-- Generator: Adobe Illustrator 17.0.0, SVG Export Plug-In . SVG Version: 6.00 Build 0)  -->
<!DOCTYPE svg PUBLIC "-//W3C//DTD SVG 1.1//EN" "http://www.w3.org/Graphics/SVG/1.1/DTD/svg11.dtd">
<svg version="1.1"  xmlns="http://www.w3.org/2000/svg" xmlns:xlink="http://www.w3.org/1999/xlink"
	  xml:space="preserve" id="konesso_logo_notagline" viewBox="0 0 283.5 99.2"><path d="M105.9 32v34.7c0 1.4-.8 2.1-2.2 2.1h-1.9c-1.4 0-2.1-.7-2.1-2.1V32c0-1.4.7-2.2 2.1-2.2h1.9c1.4 0 2.2.8 2.2 2.2zm15.1.3l-7.3 16.4 7.9 17.5c.6 1.5-.1 2.5-1.7 2.5h-2.5c-1.2 0-2-.5-2.5-1.7l-7.2-16.9c-.4-1-.4-1.8.1-2.8l6.9-15.9c.5-1.1 1.3-1.7 2.5-1.7h2.3c1.4.1 2.1 1.2 1.5 2.6zm15.2 37.1c-6.4 0-10.1-3.5-10.1-9.4V44.6c0-5.9 3.7-9.4 10.1-9.4 6.3 0 10.1 3.5 10.1 9.4V60c0 5.9-3.8 9.4-10.1 9.4zm0-28.8c-2.7 0-4.1 1.5-4.1 3.9V60c0 2.5 1.4 3.9 4.1 3.9 2.7 0 4.1-1.4 4.1-3.9V44.6c0-2.5-1.4-4-4.1-4zm17.3 26.1V37.9c0-1.4.7-2.2 2.1-2.2h1.5c1.4 0 2.2.8 2.2 2.2v1.2c.6-1.4 2.7-3.6 6.6-3.6 4.9 0 7.7 3.2 7.7 7.9v23.3c0 1.4-.8 2.1-2.2 2.1h-1.8c-1.4 0-2.1-.7-2.1-2.1v-22c0-2.5-1.4-3.9-3.8-3.9-2.2 0-4.1 1.4-4.1 3.8v22.1c0 1.4-.7 2.1-2.1 2.1h-1.8c-1.5 0-2.2-.7-2.2-2.1zM186.3 54v6.1c0 2.5 1.4 3.9 4.2 3.9 2.8 0 4.2-1.4 4.2-3.7v-.5c0-1.3.7-2 2.1-2h1.7c1.4 0 2.2.6 2.2 1.9v.4c0 5.8-3.8 9.3-10.2 9.3-6.4 0-10.1-3.5-10.1-9.4V44.6c0-5.9 3.7-9.4 10.1-9.4 6.4 0 10.2 3.5 10.2 9.4v7.3c0 1.1-.5 1.8-1.4 2-.3.1-.6.2-1 .2h-12zm0-9.5v4.7h8.4v-4.7c0-2.5-1.4-3.9-4.2-3.9-2.8 0-4.2 1.4-4.2 3.9zM226.1 59v1.4c0 5.9-3.6 9-10 9-6.3 0-9.9-3.1-9.9-8.9v-.2c0-1.3.6-2.1 2.2-2.1h1.7c1.5 0 2.2.8 2.2 2.2v.1c0 2.4 1.2 3.5 3.9 3.5s4.1-1.1 4.1-3.5v-1c0-1.5-.7-2.6-2.6-3.5l-6.1-3c-3.1-1.6-5-4-5-7.7v-1.1c0-5.8 3.3-9 9.7-9 6.3 0 9.7 3.1 9.7 8.7v.2c0 1.1-.5 1.9-2 1.9h-2c-1.5 0-2.1-.6-2.1-1.9V44c0-2.4-1-3.7-3.8-3.7s-3.8 1.3-3.8 3.7v.9c0 1.9.8 2.9 2.6 3.7l5.9 3c3.2 1.4 5.3 3.8 5.3 7.4zm24.4 0v1.4c0 5.9-3.6 9-10 9-6.3 0-9.9-3.1-9.9-8.9v-.2c0-1.3.6-2.1 2.2-2.1h1.7c1.5 0 2.2.8 2.2 2.2v.1c0 2.4 1.2 3.5 3.9 3.5s4.1-1.1 4.1-3.5v-1c0-1.5-.7-2.6-2.6-3.5l-6.1-3c-3.1-1.6-5-4-5-7.7v-1.1c0-5.8 3.3-9 9.7-9 6.3 0 9.7 3.1 9.7 8.7v.2c0 1.1-.5 1.9-2 1.9h-1.8c-1.5 0-2.1-.6-2.1-1.9V44c0-2.4-1-3.7-3.8-3.7s-3.8 1.3-3.8 3.7v.9c0 1.9.8 2.9 2.6 3.7l5.9 3c3.1 1.4 5.1 3.8 5.1 7.4zm15.8 10.4c-6.4 0-10.1-3.5-10.1-9.4V44.6c0-5.9 3.7-9.4 10.1-9.4 6.3 0 10.1 3.5 10.1 9.4V60c0 5.9-3.8 9.4-10.1 9.4zm0-28.8c-2.7 0-4.1 1.5-4.1 3.9V60c0 2.5 1.4 3.9 4.1 3.9 2.7 0 4.1-1.4 4.1-3.9V44.6c-.1-2.5-1.5-4-4.1-4zM44 16.8c18.1 0 32.8 14.7 32.8 32.8S62.1 82.4 44 82.4 11.2 67.7 11.2 49.6 25.9 16.8 44 16.8m0-4.1c-20.4 0-36.9 16.5-36.9 36.9S23.6 86.5 44 86.5 80.9 70 80.9 49.6 64.4 12.7 44 12.7z" class="st0"/><path d="M33.1 67.3c0 .4-.3.8-.8.8H30c-.4 0-.8-.3-.8-.8V31.9c0-.4.3-.8.8-.8h2.3c.4 0 .8.3.8.8v35.4zm24-36.7c-.2-.1-.4-.2-.7-.1l-1.6.5c-7.4 2.2-17.3 10.7-19.5 18.6 1.3 4.7 5.1 9.4 9.5 13v5.6c0 3.5 2.8 6.3 6.3 6.3s6.3-2.8 6.3-6.3v-37c0-.2-.1-.5-.3-.6zm-17.6 19c1.5-4.4 7.7-10.8 13.8-13.7v27.5c-6.1-3-12.2-9.4-13.8-13.8zM51 70.5c-1.2 0-2.3-1-2.3-2.3v-2.7c1.5.9 3 1.7 4.5 2.3v.5c.1 1.2-.9 2.2-2.2 2.2z" class="st0"/>
</svg>
