<svg width="87.5" height="78.2" xmlns="http://www.w3.org/2000/svg" xml:space="preserve" version="1.1">

 <g>
  <title>Layer 1</title>
  <path stroke="null" id="svg_1" class="st0" d="m104.01428,57.37145zm-59.76183,-52c18.71435,0 33.91329,14.7 33.91329,32.8s-15.19894,32.8 -33.91329,32.8s-33.91329,-14.7 -33.91329,-32.8s15.19894,-32.8 33.91329,-32.8m0,-4.1c-21.09241,0 -38.15245,16.5 -38.15245,36.9s17.06004,36.9 38.15245,36.9s38.15245,-16.5 38.15245,-36.9s-17.06004,-36.9 -38.15245,-36.9z"/>
  <path id="svg_2" class="st0" d="m33.1,55.87145c0,0.4 -0.3,0.8 -0.8,0.8l-2.3,0c-0.4,0 -0.8,-0.3 -0.8,-0.8l0,-35.4c0,-0.4 0.3,-0.8 0.8,-0.8l2.3,0c0.4,0 0.8,0.3 0.8,0.8l0,35.4zm24,-36.7c-0.2,-0.1 -0.4,-0.2 -0.7,-0.1l-1.6,0.5c-7.4,2.2 -17.3,10.7 -19.5,18.6c1.3,4.7 5.1,9.4 9.5,13l0,5.6c0,3.5 2.8,6.3 6.3,6.3s6.3,-2.8 6.3,-6.3l0,-37c0,-0.2 -0.1,-0.5 -0.3,-0.6zm-17.6,19c1.5,-4.4 7.7,-10.8 13.8,-13.7l0,27.5c-6.1,-3 -12.2,-9.4 -13.8,-13.8zm11.5,20.9c-1.2,0 -2.3,-1 -2.3,-2.3l0,-2.7c1.5,0.9 3,1.7 4.5,2.3l0,0.5c0.1,1.2 -0.9,2.2 -2.2,2.2z"/>
 </g>
</svg>